<?xml version="1.0" encoding="UTF-8"?>
<!DOCTYPE svg PUBLIC "-//W3C//DTD SVG 1.1//EN" "http://www.w3.org/Graphics/SVG/1.1/DTD/svg11.dtd">
<svg xmlns="http://www.w3.org/2000/svg" version="1.1" width="400px" height="400px" style="shape-rendering:geometricPrecision; text-rendering:geometricPrecision; image-rendering:optimizeQuality; fill-rule:evenodd; clip-rule:evenodd" xmlns:xlink="http://www.w3.org/1999/xlink">
<g><path style="opacity:0.991" fill="#5e8638" d="M 187.5,2.5 C 254.496,0.592771 309.663,24.9261 353,75.5C 395.924,132.37 406.924,195.036 386,263.5C 362.252,326.915 318.086,368.748 253.5,389C 170.991,408.595 101.824,386.761 46,323.5C 3.07577,266.63 -7.92423,203.964 13,135.5C 36.7478,72.085 80.9144,30.2517 145.5,10C 159.433,6.29063 173.433,3.79063 187.5,2.5 Z"/></g>
<g><path style="opacity:1" fill="#fdfefd" d="M 166.5,244.5 C 165.833,264.167 165.167,283.833 164.5,303.5C 126.423,290.641 88.4227,277.474 50.5,264C 59.7078,220.078 77.5411,179.911 104,143.5C 118.226,125.933 135.393,112.1 155.5,102C 164.428,97.908 173.762,95.908 183.5,96C 180.374,104.614 177.874,113.448 176,122.5C 169.655,162.914 166.488,203.581 166.5,244.5 Z"/></g>
<g><path style="opacity:1" fill="#fdfdfc" d="M 191.5,95.5 C 217.435,97.9714 240.102,107.805 259.5,125C 280.852,145.678 298.352,169.178 312,195.5C 325.155,221.134 335.655,247.801 343.5,275.5C 287.405,284.609 231.405,294.276 175.5,304.5C 173.242,242.594 176.075,180.927 184,119.5C 185.582,111.162 188.082,103.162 191.5,95.5 Z"/></g>
<g><path style="opacity:1" fill="#5e8638" d="M 229.5,154.5 C 242.482,153.66 253.815,157.494 263.5,166C 288.436,193.7 305.103,225.867 313.5,262.5C 272.476,269.06 231.476,275.726 190.5,282.5C 189.791,262.836 189.624,243.169 190,223.5C 191.075,203.181 197.075,184.515 208,167.5C 213.977,160.94 221.143,156.606 229.5,154.5 Z"/></g>
<g><path style="opacity:1" fill="#60873a" d="M 123.5,170.5 C 128.777,169.931 133.777,170.765 138.5,173C 143.718,180.654 146.551,189.154 147,198.5C 147.667,202.833 147.667,207.167 147,211.5C 146.626,212.416 146.126,213.25 145.5,214C 130.367,213.005 115.367,210.838 100.5,207.5C 99.2834,189.593 106.95,177.259 123.5,170.5 Z"/></g>
<g><path style="opacity:1" fill="#b3c5a2" d="M 166.5,244.5 C 166.833,264.511 166.5,284.511 165.5,304.5C 164.893,304.376 164.56,304.043 164.5,303.5C 165.167,283.833 165.833,264.167 166.5,244.5 Z"/></g>
</svg>
