<?xml version="1.0" encoding="UTF-8"?>
<!DOCTYPE svg PUBLIC "-//W3C//DTD SVG 1.1//EN" "http://www.w3.org/Graphics/SVG/1.1/DTD/svg11.dtd">
<svg xmlns="http://www.w3.org/2000/svg" version="1.1" width="400px" height="400px" style="shape-rendering:geometricPrecision; text-rendering:geometricPrecision; image-rendering:optimizeQuality; fill-rule:evenodd; clip-rule:evenodd" xmlns:xlink="http://www.w3.org/1999/xlink">
<g><path style="opacity:0.992" fill="#5e8638" d="M 179.5,1.5 C 263.288,-2.86017 327.455,30.1398 372,100.5C 399.453,151.13 405.12,204.13 389,259.5C 372.462,309.032 341.629,346.866 296.5,373C 246.385,399.638 194.052,404.972 139.5,389C 83.6027,370.104 43.1027,333.937 18,280.5C -0.960434,234.468 -3.6271,187.468 10,139.5C 39.174,59.8167 95.674,13.8167 179.5,1.5 Z"/></g>
<g><path style="opacity:1" fill="#c0ceb1" d="M 163.5,86.5 C 162.508,86.3284 161.842,86.6618 161.5,87.5C 159.914,86.8519 158.247,86.3519 156.5,86C 159.039,85.2042 161.372,85.3709 163.5,86.5 Z"/></g>
<g><path style="opacity:1" fill="#fdfdfd" d="M 148.5,245.5 C 147.511,250.975 147.178,256.642 147.5,262.5C 145.901,262.232 144.568,262.566 143.5,263.5C 142.448,263.351 141.448,263.517 140.5,264C 137.597,266.572 134.431,268.739 131,270.5C 121.391,263.309 112.391,263.976 104,272.5C 102.603,271.774 101.769,270.607 101.5,269C 106.568,228.65 108.401,188.15 107,147.5C 104.203,143.701 101.036,140.201 97.5,137C 90.0484,131.883 82.8817,126.383 76,120.5C 72.0334,115.538 72.8668,111.705 78.5,109C 89.3968,105.944 100.063,102.277 110.5,98C 112.444,95.8471 112.944,93.3471 112,90.5C 110.5,89 109,87.5 107.5,86C 117.683,86.3299 127.183,89.1633 136,94.5C 136.896,97.025 136.396,99.1917 134.5,101C 126.122,104.595 117.455,107.261 108.5,109C 100.057,111.869 99.3905,115.869 106.5,121C 116.922,126.142 127.255,131.475 137.5,137C 141.916,139.412 145.749,142.578 149,146.5C 149.128,179.499 148.961,212.499 148.5,245.5 Z"/></g>
<g><path style="opacity:1" fill="#fdfdfd" d="M 124.5,86.5 C 139.139,85.1021 153.473,87.1021 167.5,92.5C 170.08,94.713 170.08,96.8797 167.5,99C 159.916,102.528 152.249,105.861 144.5,109C 141.646,112.6 142.313,115.6 146.5,118C 161.583,124.472 176.583,131.139 191.5,138C 194.965,140.463 198.131,143.296 201,146.5C 201.709,185.848 201.209,225.181 199.5,264.5C 195.762,266.076 192.429,268.243 189.5,271C 188.5,271.667 187.5,271.667 186.5,271C 177.427,263.568 168.594,263.734 160,271.5C 158.333,270.167 156.667,268.833 155,267.5C 154.927,227.166 154.927,186.833 155,146.5C 152.167,142.333 148.667,138.833 144.5,136C 132.889,129.946 121.389,123.779 110,117.5C 109.37,115.097 110.203,113.263 112.5,112C 120.167,109.667 127.833,107.333 135.5,105C 140.4,103.462 142.9,100.296 143,95.5C 137.811,90.4889 131.644,87.4889 124.5,86.5 Z"/></g>
<g><path style="opacity:1" fill="#fdfdfc" d="M 161.5,87.5 C 161.842,86.6618 162.508,86.3284 163.5,86.5C 175.481,86.9561 187.147,89.1228 198.5,93C 202.674,94.5078 203.341,96.8412 200.5,100C 191.717,103.087 183.05,106.42 174.5,110C 171.833,112 171.833,114 174.5,116C 179.599,118.883 184.933,121.217 190.5,123C 206.212,127.511 221.879,132.178 237.5,137C 244.213,139.103 250.046,142.603 255,147.5C 255.667,185.167 255.667,222.833 255,260.5C 250.74,262.378 246.906,264.878 243.5,268C 241.024,267.253 238.691,265.919 236.5,264C 231.643,261.79 226.976,262.123 222.5,265C 219.971,267.029 217.304,268.862 214.5,270.5C 212.445,268.445 210.112,266.779 207.5,265.5C 207.5,225.517 207.333,185.517 207,145.5C 203.799,141.964 200.299,138.797 196.5,136C 185.181,130.174 173.515,125.174 161.5,121C 157.581,119.46 154.081,117.293 151,114.5C 150.289,112.633 150.789,111.133 152.5,110C 158.752,107.138 165.085,104.472 171.5,102C 176.685,98.187 176.685,94.5204 171.5,91C 168.252,89.5405 164.919,88.3738 161.5,87.5 Z"/></g>
<g><path style="opacity:1" fill="#cedac3" d="M 203.5,87.5 C 201.265,87.2053 199.265,87.5386 197.5,88.5C 194.834,88.067 192.168,87.567 189.5,87C 194.352,86.1849 199.019,86.3516 203.5,87.5 Z"/></g>
<g><path style="opacity:1" fill="#fdfdfc" d="M 197.5,88.5 C 199.265,87.5386 201.265,87.2053 203.5,87.5C 216.172,87.2714 228.505,89.1048 240.5,93C 243.167,95.3333 243.167,97.6667 240.5,100C 230.003,104.664 219.337,108.831 208.5,112.5C 207.269,113.651 207.269,114.817 208.5,116C 232.454,121.791 256.454,127.458 280.5,133C 288.542,134.43 295.042,138.263 300,144.5C 301.562,146.957 302.562,149.624 303,152.5C 305.507,189.224 308.674,225.89 312.5,262.5C 308.249,263.959 304.249,265.959 300.5,268.5C 296.87,266.685 293.203,264.851 289.5,263C 282.711,261.396 277.044,263.229 272.5,268.5C 269.086,266.043 265.586,263.709 262,261.5C 261.525,234.332 261.692,207.165 262.5,180C 262.62,169.111 262.12,158.278 261,147.5C 257.248,141.863 252.082,138.03 245.5,136C 231.305,131.201 216.971,126.868 202.5,123C 175.896,116.233 175.896,109.9 202.5,104C 205.759,102.789 208.592,100.956 211,98.5C 211.269,95.7202 210.102,93.5536 207.5,92C 204.256,90.5301 200.923,89.3634 197.5,88.5 Z"/></g>
<g><path style="opacity:1" fill="#d3ddc9" d="M 148.5,245.5 C 148.5,251.5 148.5,257.5 148.5,263.5C 146.833,263.5 145.167,263.5 143.5,263.5C 144.568,262.566 145.901,262.232 147.5,262.5C 147.178,256.642 147.511,250.975 148.5,245.5 Z"/></g>
<g><path style="opacity:1" fill="#fafbf9" d="M 254.5,270.5 C 260.236,271.368 265.236,273.868 269.5,278C 271.5,278.667 273.5,278.667 275.5,278C 278.665,273.25 282.998,271.583 288.5,273C 292.432,275.135 296.432,276.968 300.5,278.5C 304.763,277.416 308.43,275.249 311.5,272C 317.153,271.575 321.653,273.742 325,278.5C 326,282.337 324.5,284.337 320.5,284.5C 318.202,284.268 316.035,283.601 314,282.5C 309.878,285.785 305.378,288.452 300.5,290.5C 295.709,287.707 290.709,285.373 285.5,283.5C 283.701,283.577 282.034,284.077 280.5,285C 277.968,287.094 275.301,288.927 272.5,290.5C 267.334,287.752 262.334,284.752 257.5,281.5C 252.437,284.116 247.604,287.116 243,290.5C 239.265,288.716 235.765,286.549 232.5,284C 230.833,283.333 229.167,283.333 227.5,284C 223.576,287.21 219.41,290.044 215,292.5C 210.639,290.12 206.305,287.786 202,285.5C 198.311,287.266 194.811,289.433 191.5,292C 189.5,292.667 187.5,292.667 185.5,292C 181.855,289.192 177.855,287.025 173.5,285.5C 168.898,287.717 164.398,290.05 160,292.5C 155.667,290.846 151.833,288.346 148.5,285C 147.5,284.833 146.5,284.667 145.5,284.5C 140.5,287.167 135.5,289.833 130.5,292.5C 129.5,292.333 128.5,292.167 127.5,292C 124.75,289.21 121.584,287.043 118,285.5C 113.451,288.439 108.784,291.106 104,293.5C 99.9485,291.796 96.1151,289.629 92.5,287C 88.9119,286.634 85.4119,287.134 82,288.5C 79.5,288.667 78.3333,287.5 78.5,285C 79.7274,279.606 83.0608,276.439 88.5,275.5C 93.7311,277.367 98.8978,279.367 104,281.5C 105.167,281.333 106.333,281.167 107.5,281C 110.509,277.981 114.009,275.814 118,274.5C 119.627,274.625 121.127,275.125 122.5,276C 124.385,278.222 126.551,280.056 129,281.5C 134.89,279.14 140.39,276.14 145.5,272.5C 150.238,275.898 155.238,278.898 160.5,281.5C 164.554,278.942 168.72,276.609 173,274.5C 178.302,276.319 183.302,278.653 188,281.5C 192.934,279.282 197.767,276.949 202.5,274.5C 206.367,274.859 209.367,276.692 211.5,280C 217.564,280.137 222.564,277.803 226.5,273C 228.833,272.333 231.167,272.333 233.5,273C 236.104,275.286 238.937,277.119 242,278.5C 247.107,277.212 251.274,274.545 254.5,270.5 Z"/></g>
<g><path style="opacity:1" fill="#fafbf9" d="M 254.5,293.5 C 256.527,293.338 258.527,293.505 260.5,294C 264.034,297.266 268.034,299.766 272.5,301.5C 276.581,298.765 280.915,296.431 285.5,294.5C 289.855,296.025 293.855,298.192 297.5,301C 301.157,300.892 304.823,300.892 308.5,301C 310.083,307.608 307.417,311.441 300.5,312.5C 296.519,311.366 292.852,309.533 289.5,307C 286.833,306.333 284.167,306.333 281.5,307C 278.424,311.118 274.424,312.784 269.5,312C 265.851,308.594 261.685,306.094 257,304.5C 253.464,306.026 250.298,308.193 247.5,311C 244.97,312.422 242.303,312.755 239.5,312C 236.78,309.255 233.613,307.421 230,306.5C 228.833,306.667 227.667,306.833 226.5,307C 223.5,309.333 220.5,311.667 217.5,314C 215.5,314.667 213.5,314.667 211.5,314C 209.079,311.127 206.079,309.294 202.5,308.5C 197.803,311.009 192.969,313.342 188,315.5C 183.302,312.653 178.302,310.319 173,308.5C 169.009,309.814 165.509,311.981 162.5,315C 160.833,315.667 159.167,315.667 157.5,315C 153.892,311.549 149.892,308.716 145.5,306.5C 140.762,309.898 135.762,312.898 130.5,315.5C 126.419,312.765 122.085,310.431 117.5,308.5C 113.294,311.694 108.627,314.028 103.5,315.5C 98.9641,315.297 96.2974,312.964 95.5,308.5C 95.5904,306.575 96.5904,305.408 98.5,305C 101.167,304.667 103.833,304.333 106.5,304C 110.115,301.371 113.948,299.204 118,297.5C 122.061,299.73 126.228,301.73 130.5,303.5C 135.611,301.11 140.611,298.444 145.5,295.5C 150.4,298.87 155.566,301.87 161,304.5C 163.822,302.347 166.656,300.181 169.5,298C 172.594,297.348 175.594,297.682 178.5,299C 181.389,301.612 184.722,303.445 188.5,304.5C 193.167,301.833 197.833,299.167 202.5,296.5C 206.451,298.614 210.285,300.947 214,303.5C 219.62,300.712 225.12,297.712 230.5,294.5C 234.434,296.439 238.101,298.772 241.5,301.5C 246.663,300.09 250.997,297.423 254.5,293.5 Z"/></g>
</svg>
