<?xml version="1.0" encoding="UTF-8"?>
<!DOCTYPE svg PUBLIC "-//W3C//DTD SVG 1.1//EN" "http://www.w3.org/Graphics/SVG/1.1/DTD/svg11.dtd">
<svg xmlns="http://www.w3.org/2000/svg" version="1.1" width="400px" height="400px" style="shape-rendering:geometricPrecision; text-rendering:geometricPrecision; image-rendering:optimizeQuality; fill-rule:evenodd; clip-rule:evenodd" xmlns:xlink="http://www.w3.org/1999/xlink">
<g><path style="opacity:0.992" fill="#5e8638" d="M 179.5,1.5 C 263.288,-2.86017 327.455,30.1398 372,100.5C 399.453,151.13 405.12,204.13 389,259.5C 372.462,309.032 341.629,346.866 296.5,373C 246.385,399.638 194.052,404.972 139.5,389C 83.6027,370.104 43.1027,333.937 18,280.5C -0.960434,234.468 -3.6271,187.468 10,139.5C 39.174,59.8167 95.674,13.8167 179.5,1.5 Z"/></g>
<g><path style="opacity:1" fill="#f8faf7" d="M 164.5,61.5 C 165.376,61.3691 166.043,61.7025 166.5,62.5C 164.012,67.7322 163.845,73.0655 166,78.5C 168.833,84.1697 172.166,89.503 176,94.5C 180.95,103.126 178.783,108.626 169.5,111C 171.85,108.627 172.017,106.127 170,103.5C 166.333,99.8333 162.667,96.1667 159,92.5C 150.862,80.4111 152.695,70.0778 164.5,61.5 Z"/></g>
<g><path style="opacity:1" fill="#fafbf9" d="M 199.5,61.5 C 200.239,61.369 200.906,61.5357 201.5,62C 197.516,68.858 197.682,75.6914 202,82.5C 206.645,88.2836 210.145,94.6169 212.5,101.5C 212.005,107.826 208.671,111.326 202.5,112C 204.922,109.997 205.755,107.497 205,104.5C 200.7,99.1988 196.034,94.1988 191,89.5C 185.525,77.4898 188.358,68.1565 199.5,61.5 Z"/></g>
<g><path style="opacity:1" fill="#f9fbf8" d="M 233.5,61.5 C 234.239,61.369 234.906,61.5357 235.5,62C 232.709,66.1007 231.875,70.6007 233,75.5C 236.165,81.8337 239.831,87.8337 244,93.5C 249.819,102.213 247.819,108.546 238,112.5C 239.207,110.086 239.54,107.419 239,104.5C 235.034,99.5325 230.701,94.8658 226,90.5C 219.64,78.5507 222.14,68.884 233.5,61.5 Z"/></g>
<g><path style="opacity:1" fill="#fefefd" d="M 218.5,152.5 C 217.711,152.783 217.044,153.283 216.5,154C 234.497,154.5 252.497,154.667 270.5,154.5C 287.158,157.158 296.824,166.824 299.5,183.5C 233.5,183.5 167.5,183.5 101.5,183.5C 103.937,167.729 112.937,158.063 128.5,154.5C 147.179,154.833 165.845,154.5 184.5,153.5C 184.376,152.893 184.043,152.56 183.5,152.5C 178.629,148.411 178.295,143.911 182.5,139C 188.395,137.876 194.395,137.376 200.5,137.5C 206.605,137.376 212.605,137.876 218.5,139C 221.394,141.909 222.227,145.409 221,149.5C 220.623,150.942 219.79,151.942 218.5,152.5 Z"/></g>
<g><path style="opacity:1" fill="#ccd7c0" d="M 183.5,152.5 C 184.043,152.56 184.376,152.893 184.5,153.5C 165.845,154.5 147.179,154.833 128.5,154.5C 146.833,153.833 165.167,153.167 183.5,152.5 Z"/></g>
<g><path style="opacity:1" fill="#ccd8c1" d="M 218.5,152.5 C 235.833,153.167 253.167,153.833 270.5,154.5C 252.497,154.667 234.497,154.5 216.5,154C 217.044,153.283 217.711,152.783 218.5,152.5 Z"/></g>
<g><path style="opacity:1" fill="#fefefe" d="M 69.5,196.5 C 156.833,196.5 244.167,196.5 331.5,196.5C 331.5,201.833 331.5,207.167 331.5,212.5C 320.833,212.5 310.167,212.5 299.5,212.5C 299.667,238.835 299.5,265.169 299,291.5C 296.051,305.784 287.551,314.95 273.5,319C 224.833,319.667 176.167,319.667 127.5,319C 113.44,314.942 104.94,305.775 102,291.5C 101.5,265.169 101.333,238.835 101.5,212.5C 90.8333,212.5 80.1667,212.5 69.5,212.5C 69.5,207.167 69.5,201.833 69.5,196.5 Z"/></g>
</svg>
