<?xml version="1.0" encoding="UTF-8"?>
<!DOCTYPE svg PUBLIC "-//W3C//DTD SVG 1.1//EN" "http://www.w3.org/Graphics/SVG/1.1/DTD/svg11.dtd">
<svg xmlns="http://www.w3.org/2000/svg" version="1.1" width="400px" height="400px" style="shape-rendering:geometricPrecision; text-rendering:geometricPrecision; image-rendering:optimizeQuality; fill-rule:evenodd; clip-rule:evenodd" xmlns:xlink="http://www.w3.org/1999/xlink">
<g><path style="opacity:0.993" fill="#5e8638" d="M 179.5,1.5 C 263.288,-2.86017 327.455,30.1398 372,100.5C 399.453,151.13 405.12,204.13 389,259.5C 372.462,309.032 341.629,346.866 296.5,373C 246.385,399.638 194.052,404.972 139.5,389C 83.6027,370.104 43.1027,333.937 18,280.5C -0.960434,234.468 -3.6271,187.468 10,139.5C 39.174,59.8167 95.674,13.8167 179.5,1.5 Z"/></g>
<g><path style="opacity:1" fill="#f7f9f5" d="M 123.5,57.5 C 143.823,66.4421 164.656,74.1088 186,80.5C 186.833,80.1667 187.667,79.8333 188.5,79.5C 189.381,75.6244 190.714,71.9577 192.5,68.5C 195.63,65.887 198.796,65.887 202,68.5C 202.782,73.2992 202.282,77.9658 200.5,82.5C 200.833,83.1667 201.167,83.8333 201.5,84.5C 244.66,93.5704 288.327,98.7371 332.5,100C 333.833,101.333 333.833,102.667 332.5,104C 287.285,104.057 242.619,99.2232 198.5,89.5C 197.32,96.2221 195.82,102.889 194,109.5C 193.047,111.455 191.713,113.122 190,114.5C 189.178,117.117 188.678,119.784 188.5,122.5C 185.07,123.21 182.737,122.043 181.5,119C 182.78,115.494 182.78,111.994 181.5,108.5C 183.653,101.232 185.153,93.8987 186,86.5C 164.081,80.3701 143.081,72.0368 123,61.5C 122.421,60.0715 122.588,58.7382 123.5,57.5 Z"/></g>
<g><path style="opacity:1" fill="#fdfdfc" d="M 174.5,129.5 C 184.695,128.869 189.861,133.536 190,143.5C 181.267,159.298 172.267,174.964 163,190.5C 161.421,192.041 159.587,193.208 157.5,194C 145.634,197.677 133.967,201.844 122.5,206.5C 131.833,224.5 141.167,242.5 150.5,260.5C 175.16,261.333 199.827,261.833 224.5,262C 226.5,262.667 228.5,263.333 230.5,264C 255.338,278.253 280.338,292.253 305.5,306C 313.032,312.703 313.365,319.703 306.5,327C 301.398,329.343 296.064,330.01 290.5,329C 266.512,320.115 242.845,310.449 219.5,300C 199.465,301.003 179.465,302.67 159.5,305C 144.826,308.334 132.993,304.167 124,292.5C 107.333,264.5 90.6667,236.5 74,208.5C 72.7773,202.621 73.6107,197.121 76.5,192C 53.4181,191.255 42.5847,179.422 44,156.5C 52.3586,136.741 66.5252,130.908 86.5,139C 100.776,148.836 104.276,161.669 97,177.5C 95.8589,179.609 94.3589,181.442 92.5,183C 96.6146,184.225 100.615,185.725 104.5,187.5C 118.275,182.964 131.941,178.131 145.5,173C 152.793,160.916 159.959,148.749 167,136.5C 168.742,133.254 171.242,130.921 174.5,129.5 Z"/></g>
<g><path style="opacity:1" fill="#f5f7f2" d="M 166.5,201.5 C 167.376,201.369 168.043,201.702 168.5,202.5C 164.537,215.352 161.037,228.352 158,241.5C 155.525,246.683 153.025,246.683 150.5,241.5C 153.661,229.189 156.661,216.856 159.5,204.5C 162.491,204.834 164.824,203.834 166.5,201.5 Z"/></g>
<g><path style="opacity:1" fill="#fcfdfc" d="M 218.5,235.5 C 238.596,239.356 258.596,243.856 278.5,249C 289.567,252.029 300.567,255.362 311.5,259C 318.99,263.979 320.49,270.479 316,278.5C 308.895,283.252 301.062,284.752 292.5,283C 284.124,281.965 275.79,280.632 267.5,279C 254.279,270.889 240.612,263.555 226.5,257C 202.5,256.667 178.5,256.333 154.5,256C 153.167,255 153.167,254 154.5,253C 176.185,247.962 197.518,242.129 218.5,235.5 Z"/></g>
</svg>
