<?xml version="1.0" encoding="UTF-8"?>
<!DOCTYPE svg PUBLIC "-//W3C//DTD SVG 1.1//EN" "http://www.w3.org/Graphics/SVG/1.1/DTD/svg11.dtd">
<svg xmlns="http://www.w3.org/2000/svg" version="1.1" width="400px" height="400px" style="shape-rendering:geometricPrecision; text-rendering:geometricPrecision; image-rendering:optimizeQuality; fill-rule:evenodd; clip-rule:evenodd" xmlns:xlink="http://www.w3.org/1999/xlink">
<g><path style="opacity:0.993" fill="#5e8638" d="M 179.5,1.5 C 263.288,-2.86017 327.455,30.1398 372,100.5C 399.453,151.13 405.12,204.13 389,259.5C 372.462,309.032 341.629,346.866 296.5,373C 246.385,399.638 194.052,404.972 139.5,389C 83.6027,370.104 43.1027,333.937 18,280.5C -0.960434,234.468 -3.6271,187.468 10,139.5C 39.174,59.8167 95.674,13.8167 179.5,1.5 Z"/></g>
<g><path style="opacity:1" fill="#fdfdfd" d="M 168.5,57.5 C 189.489,56.6569 199.656,66.6569 199,87.5C 197.371,91.9311 194.871,95.7644 191.5,99C 203.446,99.0892 212.946,103.923 220,113.5C 223.588,119.675 226.922,126.009 230,132.5C 236.863,150.089 243.53,167.756 250,185.5C 250.9,191.805 249.9,197.805 247,203.5C 246.333,205.833 246.333,208.167 247,210.5C 258.685,243.891 271.352,276.891 285,309.5C 286.374,321.465 281.04,328.132 269,329.5C 264.841,328.921 261.175,327.254 258,324.5C 250.469,309.436 243.469,294.102 237,278.5C 231.176,266.184 224.843,254.184 218,242.5C 212.256,247.573 207.256,253.24 203,259.5C 200.101,270.501 197.267,281.501 194.5,292.5C 201.566,304.961 208.899,317.294 216.5,329.5C 213.696,331.138 211.029,332.971 208.5,335C 207.365,335.749 206.365,335.583 205.5,334.5C 200.138,326.97 194.971,319.303 190,311.5C 187.788,319.427 185.788,327.427 184,335.5C 180.096,343.783 173.596,346.95 164.5,345C 155.882,341.264 152.382,334.764 154,325.5C 157.548,310.21 160.882,294.876 164,279.5C 164.667,276.167 164.667,272.833 164,269.5C 150.364,247.699 136.531,226.033 122.5,204.5C 116.825,209.277 110.992,209.61 105,205.5C 102.219,199.956 103.386,195.456 108.5,192C 124.373,182.787 139.707,172.787 154.5,162C 156.617,160.269 158.117,158.102 159,155.5C 161.89,142.943 165.556,130.61 170,118.5C 172.051,113.786 174.885,109.619 178.5,106C 159.115,105.616 149.615,95.783 150,76.5C 153.017,66.9839 159.184,60.6505 168.5,57.5 Z"/></g>
<g><path style="opacity:1" fill="#fdfdfc" d="M 235.5,86.5 C 241.07,85.4161 245.57,87.0827 249,91.5C 259.323,111.315 269.49,131.148 279.5,151C 278.614,155.095 276.281,158.095 272.5,160C 265.647,163.785 258.314,165.618 250.5,165.5C 244.638,144.117 235.805,124.117 224,105.5C 220.958,102.067 217.458,99.234 213.5,97C 220.509,92.6609 227.842,89.1609 235.5,86.5 Z"/></g>
<g><path style="opacity:1" fill="#5f8639" d="M 180.5,167.5 C 181.496,167.414 182.329,167.748 183,168.5C 188.298,176.1 192.798,184.1 196.5,192.5C 187.054,212.39 177.888,232.39 169,252.5C 157.333,235.171 146.167,217.504 135.5,199.5C 146.381,193.563 157.714,188.397 169.5,184C 174.552,179.389 178.218,173.889 180.5,167.5 Z"/></g>
</svg>
