<?xml version="1.0" encoding="UTF-8"?>
<!DOCTYPE svg PUBLIC "-//W3C//DTD SVG 1.1//EN" "http://www.w3.org/Graphics/SVG/1.1/DTD/svg11.dtd">
<svg xmlns="http://www.w3.org/2000/svg" version="1.1" width="400px" height="400px" style="shape-rendering:geometricPrecision; text-rendering:geometricPrecision; image-rendering:optimizeQuality; fill-rule:evenodd; clip-rule:evenodd" xmlns:xlink="http://www.w3.org/1999/xlink">
<g><path style="opacity:0.992" fill="#5e8638" d="M 179.5,1.5 C 263.288,-2.86017 327.455,30.1398 372,100.5C 399.453,151.13 405.12,204.13 389,259.5C 372.462,309.032 341.629,346.866 296.5,373C 246.385,399.638 194.052,404.972 139.5,389C 83.6027,370.104 43.1027,333.937 18,280.5C -0.960434,234.468 -3.6271,187.468 10,139.5C 39.174,59.8167 95.674,13.8167 179.5,1.5 Z"/></g>
<g><path style="opacity:1" fill="#fdfdfc" d="M 187.5,61.5 C 208.56,61.0638 218.06,71.3971 216,92.5C 215.358,94.7619 214.525,96.9285 213.5,99C 227.262,96.8098 238.929,100.81 248.5,111C 261.03,123.196 273.196,135.696 285,148.5C 291.655,155.826 296.655,164.159 300,173.5C 300.097,182.125 298.43,190.458 295,198.5C 287.333,212.167 279.667,225.833 272,239.5C 270.881,263.492 270.048,287.492 269.5,311.5C 276.524,313.173 283.524,315.006 290.5,317C 293.962,321.41 296.128,326.243 297,331.5C 294.667,334.167 292.333,334.167 290,331.5C 288.414,328.659 286.58,325.993 284.5,323.5C 255.592,321.022 226.758,318.355 198,315.5C 186,292.833 174,270.167 162,247.5C 149.078,242.024 135.912,237.024 122.5,232.5C 120.617,206.134 118.45,179.8 116,153.5C 99.6417,138.141 83.6417,122.474 68,106.5C 67.3357,101.504 69.5023,99.6703 74.5,101C 86.3042,111.803 97.8042,122.97 109,134.5C 111.941,132.739 113.608,130.072 114,126.5C 114.833,125.667 115.667,124.833 116.5,124C 122.833,123.333 129.167,123.333 135.5,124C 143.776,125.935 152.11,127.435 160.5,128.5C 163.924,128.518 167.257,128.018 170.5,127C 179.669,121.583 188.669,115.917 197.5,110C 182.907,110.403 173.741,103.57 170,89.5C 168.483,75.5278 174.316,66.1945 187.5,61.5 Z"/></g>
<g><path style="opacity:1" fill="#fdfdfd" d="M 257.5,70.5 C 261.308,70.1632 264.974,70.6632 268.5,72C 285.333,88.8333 302.167,105.667 319,122.5C 318.29,131.059 314.124,137.559 306.5,142C 302.921,143.706 299.421,145.539 296,147.5C 277.763,125.928 257.596,106.428 235.5,89C 241.853,81.4643 249.187,75.2976 257.5,70.5 Z"/></g>
<g><path style="opacity:1" fill="#5e8639" d="M 200.5,143.5 C 202.857,143.337 205.19,143.503 207.5,144C 217.318,151.004 226.485,158.837 235,167.5C 237.139,169.806 238.639,172.473 239.5,175.5C 238.99,177.088 237.99,178.255 236.5,179C 223.695,183.986 211.528,190.152 200,197.5C 196.126,218.359 193.293,239.359 191.5,260.5C 189.278,260.822 187.444,260.155 186,258.5C 182.621,252.373 179.621,246.039 177,239.5C 175.262,235.759 172.762,232.592 169.5,230C 158.699,227.789 148.366,224.289 138.5,219.5C 136.326,197.439 133.659,175.439 130.5,153.5C 130.742,150.002 132.575,148.002 136,147.5C 147.608,151.036 159.275,154.369 171,157.5C 181.846,154.783 191.68,150.117 200.5,143.5 Z"/></g>
<g><path style="opacity:1" fill="#60873a" d="M 238.5,211.5 C 241.93,211.107 245.096,211.773 248,213.5C 247.822,218.887 246.156,223.887 243,228.5C 241.11,232.999 239.944,237.666 239.5,242.5C 242.999,263.834 246.166,285.167 249,306.5C 246.446,307.771 243.613,308.438 240.5,308.5C 231.494,307.749 222.494,306.916 213.5,306C 205.278,301.128 201.445,293.961 202,284.5C 207.387,282.744 210.72,279.077 212,273.5C 215.079,255.184 219.413,237.184 225,219.5C 225.374,218.584 225.874,217.75 226.5,217C 230.475,214.854 234.475,213.02 238.5,211.5 Z"/></g>
</svg>
